<svg width="40" height="40" viewBox="0 0 40 40" fill="none" xmlns="http://www.w3.org/2000/svg">
<path d="M39.9986 19.9993C39.9986 8.95361 31.0446 0 19.9993 0C8.95399 0 0 8.95399 0 19.9993C0 29.9817 7.31345 38.2555 16.8746 39.7554V25.7802H11.7966V19.9993H16.8746V15.5934C16.8746 10.5811 19.8606 7.81226 24.4286 7.81226C26.6168 7.81226 28.9056 8.2027 28.9056 8.2027V13.1247H26.3835C23.8991 13.1247 23.1244 14.6661 23.1244 16.2478V19.9993H28.6712L27.7843 25.7802H23.1244V39.7554C32.6852 38.2551 39.999 29.9817 39.999 19.9993H39.9986Z" fill="white"/>
</svg>
