<svg width="20" height="21" viewBox="0 0 20 21" fill="none" xmlns="http://www.w3.org/2000/svg">
<path fill-rule="evenodd" clip-rule="evenodd" d="M14.9181 19.3252C15.6135 19.3252 16.149 19.0331 16.625 18.6887L17.9883 17.5622C18.1298 17.4245 18.4968 17.1666 18.5892 17.0332C18.8015 16.7267 18.7154 16.2122 18.6089 15.9064C18.3992 15.305 17.9875 14.7154 17.5699 14.2464C17.5252 14.1961 17.5094 14.1672 17.4656 14.1205L17.1303 13.7654C17.0831 13.7164 17.0786 13.698 17.0364 13.6501C16.8348 13.4212 16.1906 12.8654 15.9645 12.6924C15.4204 12.2762 15.1215 12.0024 14.5663 12.3618C13.803 12.8557 13.4724 13.4488 13.031 14.1742C12.9562 14.297 12.6279 14.9843 12.6166 15.1197C12.5327 15.1128 12.3824 15.0105 12.3093 14.9667L11.3225 14.3215C11.273 14.285 11.2376 14.2654 11.1889 14.225C10.8455 13.9405 10.4809 13.6808 10.1638 13.367C10.1119 13.3157 10.0893 13.3079 10.038 13.2627C9.99166 13.2218 9.95701 13.182 9.91232 13.1373L8.90414 12.0323C8.30926 11.2704 7.75667 10.4848 7.3231 9.61703C7.16336 9.29732 6.99406 8.98774 6.86279 8.65461C6.77487 8.43146 6.67569 8.21025 6.59323 7.98262C6.42176 7.50933 6.2735 7.06539 6.15144 6.54135C6.36789 6.52334 6.60402 6.44499 6.81213 6.38607C7.60008 6.16301 9.12152 5.69905 9.45187 4.92491C9.6138 4.54536 9.32716 4.03903 9.17144 3.68869C9.08548 3.49535 9.01378 3.30976 8.9201 3.12406L8.65518 2.57297C8.38307 2.02878 8.10113 1.50165 7.73872 1.02051C7.67894 0.94112 7.62554 0.880744 7.56237 0.799331C7.33662 0.508503 6.99605 0.195895 6.64511 0.0637031C6.29548 -0.0680135 5.98763 0.0167867 5.6952 0.205819L4.21155 1.21198C3.93914 1.41643 3.5412 1.72319 3.33565 1.98897C3.06446 2.33961 2.86577 2.55696 2.71192 3.01816C2.50028 3.6525 2.63633 4.35092 2.75652 4.95656C2.84476 5.40118 3.1727 6.71621 3.33297 7.12104L3.61709 7.94584C3.66377 8.0865 3.71333 8.22897 3.76619 8.36161C3.97735 8.89136 4.15498 9.43783 4.38674 9.95891L4.55238 10.3372C4.93657 11.2626 5.49859 12.1547 6.06753 12.9648L7.4538 14.6123C7.64403 14.8019 7.81853 14.9767 8.00827 15.1668C8.37689 15.536 8.77768 15.8816 9.18035 16.2125C9.48066 16.4593 10.4631 17.1154 10.7963 17.3375C11.4938 17.8026 12.2662 18.3477 13.0139 18.7186C13.5615 18.9902 14.1697 19.3252 14.9181 19.3252L14.9181 19.3252Z" fill="#E31E24"/>
<path fill-rule="evenodd" clip-rule="evenodd" d="M0 10.6002C0 11.881 0.240851 12.9763 0.671924 14.1756C0.873079 14.7353 1.1809 15.3009 1.4843 15.8112C1.77572 16.3013 2.04498 16.6086 2.37625 17.0325L3.78216 18.3884C3.89899 18.4845 4.00516 18.558 4.12766 18.6496C4.65031 19.0405 5.09769 19.2779 5.6631 19.5622C6.75263 20.1099 8.37257 20.5176 9.60357 20.5176C10.641 20.5176 11.3459 20.4948 12.3699 20.2292L12.9931 20.0155C12.8708 19.987 12.0106 19.5249 11.8253 19.4048C11.2338 19.0214 11.5113 19.2292 10.7335 19.2625C10.4797 19.2733 10.2362 19.3041 9.95923 19.3041C8.42775 19.3041 7.00249 18.9186 5.69742 18.1888C5.13481 17.8742 4.58738 17.4873 4.11679 17.0494C3.78799 16.7436 3.65217 16.6301 3.32022 16.2349C3.23064 16.1283 3.15772 16.0425 3.07583 15.9353C3.03524 15.8822 2.99977 15.8427 2.95579 15.7834C2.91289 15.7255 2.8841 15.6812 2.84229 15.6249C2.69361 15.4245 2.55417 15.1963 2.4229 14.9773C2.34962 14.8551 2.30128 14.7532 2.23184 14.6243L2.05071 14.2614C1.62416 13.398 1.23442 12.0347 1.23442 10.7467C1.23442 9.52086 1.41664 8.42723 1.86486 7.33903C2.07303 6.83356 2.06762 7.06998 1.9291 6.51605L1.61105 5.20215C1.53618 5.25703 1.33051 5.64609 1.28029 5.72922C1.0592 6.0954 0.870405 6.5205 0.711382 6.91782C0.442839 7.58871 0.264087 8.2253 0.137511 8.98021C0.0982303 9.21467 0.0453416 9.517 0.0419841 9.76344C0.0405579 9.86586 0.0286431 9.87257 0.0220171 9.95271C0.0160449 10.0248 0.0225817 10.1092 0.0217497 10.1826C0.0202641 10.3109 0 10.3505 0 10.6002H0Z" fill="#E31E24"/>
<path fill-rule="evenodd" clip-rule="evenodd" d="M8.95508 0.70393C9.00939 0.806647 9.0681 0.887436 9.12919 0.990093L9.38238 1.42738C9.418 1.48704 9.43188 1.5109 9.46403 1.57588C9.51596 1.68085 9.5983 1.78357 9.62462 1.89654C9.79827 1.89654 9.94014 1.85435 10.1388 1.88442C10.2319 1.89853 10.2986 1.89669 10.3992 1.89606C10.656 1.89443 11.3873 1.99982 11.6107 2.0446C12.2449 2.17162 13.0869 2.43348 13.6697 2.72648C13.7973 2.79065 13.9074 2.84036 14.0325 2.90772C14.2688 3.03498 14.4957 3.17015 14.7131 3.31511C15.202 3.64127 15.2769 3.73647 15.6415 4.01856L15.9381 4.28693C16.7464 5.10254 17.2644 5.7564 17.7848 6.81308C17.8436 6.93243 17.898 7.06507 17.9525 7.18939C18.1629 7.66937 18.2276 7.93648 18.3729 8.4219C18.6865 9.46957 18.7015 10.8344 18.5438 11.9246C18.4648 12.4716 18.3788 12.6903 18.2634 13.1325C18.2235 13.2852 18.4014 13.4041 18.6035 13.6522C18.6705 13.7345 19.0763 14.247 19.1027 14.3456L19.2936 13.9507C19.4372 13.5534 19.575 13.0872 19.6589 12.6631C19.7951 11.9743 19.8676 11.3098 19.8768 10.6624V10.3717C19.8519 8.74589 19.4208 7.22451 18.5868 5.69727C18.272 5.12079 17.9787 4.7541 17.5964 4.2606C17.3433 3.93379 16.6769 3.26906 16.3798 3.02925C15.8366 2.59087 15.5773 2.38555 14.9641 2.01789C14.832 1.9387 14.7086 1.88097 14.5745 1.80072C14.2237 1.59065 13.6885 1.39119 13.295 1.23906C12.4499 0.912394 11.1591 0.662035 10.1896 0.662035C9.92933 0.662035 9.57215 0.65324 9.3286 0.679892C9.26679 0.686667 9.20576 0.679357 9.14456 0.684141C9.06365 0.6905 9.05872 0.70393 8.95511 0.70393H8.95508Z" fill="#E31E24"/>
</svg>
