<svg width="41" height="40" viewBox="0 0 41 40" fill="none" xmlns="http://www.w3.org/2000/svg">
<path d="M20.502 0C31.5473 0 40.5013 8.95378 40.5013 19.9993C40.5013 31.0446 31.5473 39.9986 20.502 39.9986C9.45669 39.9986 0.502686 31.0446 0.502686 19.9993C0.502686 8.95378 9.45669 0 20.502 0ZM20.502 7.4072C17.082 7.4072 16.6532 7.42171 15.3102 7.4831C13.9701 7.54427 13.0546 7.75679 12.2536 8.06821C11.4254 8.39011 10.7233 8.82051 10.0233 9.52058C9.3232 10.2206 8.89257 10.9227 8.57089 11.7509C8.2597 12.5517 8.04673 13.467 7.98579 14.8073C7.9244 16.1507 7.90989 16.5791 7.90989 19.9991C7.90989 23.4188 7.9244 23.8479 7.98579 25.1909C8.04673 26.531 8.25992 27.4465 8.57089 28.2472C8.89257 29.0754 9.3232 29.7775 10.0233 30.4773C10.7233 31.1774 11.4256 31.608 12.2536 31.9302C13.0546 32.2413 13.9701 32.4543 15.3102 32.5153C16.6532 32.5766 17.082 32.5912 20.502 32.5912C23.9217 32.5912 24.3503 32.5766 25.6936 32.5153C27.0339 32.4541 27.9494 32.2411 28.7503 31.9302C29.5785 31.608 30.2806 31.1776 30.9807 30.4773C31.6805 29.7775 32.1114 29.0752 32.4331 28.2472C32.7443 27.4465 32.9572 26.531 33.0184 25.1909C33.0798 23.8477 33.0943 23.4188 33.0943 19.9991C33.0943 16.5793 33.0798 16.1507 33.0184 14.8073C32.9572 13.467 32.7443 12.5517 32.4331 11.7509C32.1114 10.9227 31.6805 10.2206 30.9807 9.52058C30.2806 8.82029 29.5783 8.38989 28.7503 8.06821C27.9494 7.75679 27.0341 7.54405 25.6936 7.4831C24.3503 7.42171 23.9217 7.4072 20.502 7.4072ZM28.7345 13.2774C28.7345 14.1121 28.0581 14.7885 27.2238 14.7885C26.3892 14.7885 25.7128 14.1121 25.7128 13.2774C25.7128 12.4427 26.3892 11.7663 27.2238 11.7663C28.0581 11.7663 28.7345 12.4427 28.7345 13.2774ZM20.502 24.1966C18.1839 24.1966 16.3045 22.3174 16.3045 19.9991C16.3045 17.681 18.1839 15.8016 20.502 15.8016C22.8201 15.8016 24.6995 17.681 24.6995 19.9991C24.6995 22.3172 22.8203 24.1966 20.502 24.1966ZM20.502 13.533C16.9309 13.533 14.0359 16.428 14.0359 19.9991C14.0359 23.5702 16.9309 26.4653 20.502 26.4653C24.0731 26.4653 26.968 23.5704 26.968 19.9991C26.968 16.428 24.0731 13.533 20.502 13.533ZM20.502 9.67595C23.8641 9.67595 24.2624 9.68868 25.5904 9.74917C26.818 9.80543 27.4846 10.0104 27.9284 10.1829C28.5162 10.4113 28.9356 10.6843 29.3763 11.1248C29.817 11.5654 30.0898 11.9849 30.3181 12.5724C30.4905 13.0162 30.6956 13.6828 30.7519 14.9106C30.8124 16.2387 30.8251 16.6367 30.8251 19.9991C30.8251 23.3615 30.8124 23.7595 30.7519 25.0875C30.6956 26.3151 30.4905 26.9819 30.3181 27.4255C30.0898 28.0133 29.8167 28.4329 29.3763 28.8734C28.9356 29.314 28.5162 29.5868 27.9284 29.8152C27.4846 29.9876 26.818 30.1929 25.5904 30.2487C24.2626 30.3095 23.8646 30.3222 20.502 30.3222C17.1394 30.3222 16.7413 30.3095 15.4135 30.2487C14.1862 30.1932 13.5191 29.9878 13.0756 29.8152C12.4878 29.5868 12.0683 29.3138 11.6277 28.8734C11.187 28.4329 10.9142 28.0133 10.6858 27.4255C10.5135 26.9819 10.3083 26.3151 10.2521 25.0875C10.1916 23.7597 10.1789 23.3615 10.1789 19.9991C10.1789 16.6369 10.1916 16.2387 10.2521 14.9106C10.3083 13.6828 10.5133 13.0162 10.6858 12.5724C10.9142 11.9849 11.187 11.5654 11.6277 11.1248C12.0683 10.6843 12.4878 10.4113 13.0756 10.1829C13.5191 10.0104 14.1862 9.80543 15.4135 9.74917C16.7416 9.68868 17.1396 9.67595 20.502 9.67595Z" fill="white"/>
</svg>
