<svg width="41" height="40" viewBox="0 0 41 40" fill="none" xmlns="http://www.w3.org/2000/svg">
<path fill-rule="evenodd" clip-rule="evenodd" d="M29.4298 11.5359C29.5722 11.592 29.6636 11.6515 29.7401 11.8766C29.7679 11.9567 29.784 12.1285 29.782 12.3003C29.7807 12.4246 29.7654 12.5374 29.7542 12.7181C29.6403 14.555 26.2343 28.2641 26.2343 28.2641C26.2343 28.2641 26.0304 29.0671 25.3002 29.0936C25.0342 29.1026 24.7108 29.0492 24.3244 28.7174C23.5549 28.0566 21.7721 26.7915 20.1157 25.6478C19.6154 26.0656 18.6162 26.9306 17.5833 27.9647C16.1193 29.4285 16.3079 27.9647 16.3079 27.9647L16.7574 23.1856L16.7686 23.1914C16.7893 23.144 16.8222 23.1026 16.8222 23.1026C16.8222 23.1026 25.4474 15.4376 25.6766 14.6318C25.6945 14.5695 25.6274 14.5399 25.537 14.5667C24.9643 14.777 15.0335 21.0465 13.9376 21.7399C13.8735 21.7815 13.6941 21.7547 13.6941 21.7547L8.87639 20.1846C8.87639 20.1846 8.30135 19.9505 8.48588 19.4232C8.52417 19.3135 8.60125 19.2188 8.83095 19.0588C9.89884 18.315 28.5901 11.5953 28.5901 11.5953C28.5901 11.5953 29.1181 11.4205 29.4298 11.5361V11.5359ZM20.0047 0C8.95934 0 0.00537109 8.95524 0.00537109 20.0008C0.00537109 31.0433 8.95934 40.0001 20.0047 40.0001C31.05 40.0001 40.0039 31.0433 40.0039 20.0008C40.0039 8.95524 31.05 0 20.0047 0Z" fill="white"/>
</svg>
