<svg width="36" height="36" viewBox="0 0 36 36" fill="none" xmlns="http://www.w3.org/2000/svg">
<path fill-rule="evenodd" clip-rule="evenodd" d="M18.7228 28.7534C19.1852 29.0522 19.4236 29.4085 19.9849 29.7712C20.4792 30.0905 20.9218 30.2942 21.5403 30.4616C23.2106 30.9137 24.0438 30.5828 25.5049 30.1805L25.516 34.5475H18.7174L18.7228 28.7533L18.7228 28.7534ZM0.0613399 20.9287C0.199078 21.659 1.51552 21.618 1.41412 20.6611C1.32161 19.7885 -0.126551 19.9323 0.0613399 20.9287ZM29.061 4.64283C28.5046 0.827836 34.1384 0.408138 34.5658 3.82514C35.0399 7.61597 29.5489 7.98776 29.061 4.64283ZM30.9893 0.119464C25.468 1.35434 27.312 9.34723 32.6407 8.2996C38.0162 7.24277 36.3921 -1.08889 30.9893 0.119464ZM10.0799 34.5476C10.0799 28.8826 9.56983 30.2572 11.4797 29.8463C15.0057 29.0877 15.9594 27.1403 17.3075 25.7927L17.3131 34.5476H10.0799V34.5476ZM25.5053 28.3696C24.7885 29.4687 22.3838 29.4029 21.2023 28.8387C18.0549 27.3358 17.4679 22.357 21.9019 20.7347C22.956 20.3491 22.4855 19.8852 22.2044 18.9973C20.6281 14.0179 27.4487 10.6078 30.5154 15.0403C31.831 16.9418 30.952 17.5806 31.2264 19.4188C31.8519 19.8591 32.2299 19.8759 32.899 20.5191C37.4606 24.9037 32.0234 31.5753 26.9094 28.4851C26.9094 23.6318 26.3509 24.9749 28.9994 22.3556C29.3905 21.9689 30.2237 21.4368 29.6768 20.6479C28.6131 19.9806 27.7892 21.8967 26.9127 22.3051C26.9068 21.629 26.9374 20.8838 26.7455 20.3491C24.7926 19.6248 25.7624 22.0511 25.469 24.9705C24.6585 24.3608 24.1292 23.0619 22.8825 23.4146C22.4642 24.5038 23.6329 25.1859 24.2449 25.7964C25.6467 27.1951 25.5054 26.6911 25.5054 28.3696H25.5053ZM17.3087 20.5299C16.0594 19.8451 14.7038 18.1264 13.9177 16.5946C11.986 12.8301 12.2203 8.67212 14.4079 5.1083C15.1722 3.86306 16.7247 2.23485 18.0158 1.57465C19.5217 2.32597 21.1166 4.16324 21.981 5.73884C23.0122 7.61875 23.6668 9.9978 23.3479 12.505C22.9914 12.9263 22.7895 12.9301 22.4266 13.2627C22.129 13.5355 21.9656 13.7978 21.7408 14.1236C19.8115 16.9204 21.1263 18.201 20.4165 19.1165C20.0224 19.6248 19.3529 20.1905 18.7211 20.5328L18.7178 12.9262C18.7178 12.2058 18.9093 12.18 19.2915 11.8144C19.754 11.3723 21.7247 9.79569 20.8008 9.17295C19.7885 8.92251 19.2479 9.84601 18.7598 10.361C18.6609 9.52983 18.8401 7.97834 18.6868 7.33311C18.5009 6.55046 17.3695 6.40542 17.3065 7.72011C17.2151 9.62607 17.3467 11.7092 17.3048 13.6484C16.5516 13.1705 15.6943 11.5827 14.7282 11.8772C13.7989 12.6981 15.1803 13.6086 15.6242 14.052C16.388 14.8149 17.3137 15.4781 17.3138 16.1552L17.3087 20.53L17.3087 20.5299ZM1.73619 18.2529C2.26662 17.4426 2.49131 16.6281 3.1788 15.7932C5.04912 13.522 8.60398 12.0503 11.2708 13.0815C11.6119 13.9345 11.7011 15.0502 12.0988 16.029C13.0323 18.3259 15.1136 21.1832 17.1771 22.1443C16.7594 25.5142 13.6122 28.3191 10.0927 28.6388C9.99152 25.6127 9.88922 26.1579 11.4404 24.6081C12.3035 23.7457 14.1624 22.3431 13.1792 21.6929C12.3217 21.1258 11.0402 23.2635 10.1118 23.8536C9.78955 20.1258 10.9145 17.5481 8.83041 18.2112C8.58707 18.9402 8.68743 19.9868 8.67 20.8613C7.70149 20.4122 7.64489 19.1759 6.31583 19.5062C5.88304 20.4943 6.47493 20.7983 7.04326 21.3618C9.26812 23.5676 8.70753 22.3259 8.67471 28.5838C7.01395 28.726 4.81679 27.3436 4.01732 26.6275C2.11527 24.9237 2.08166 22.6456 0.973626 23.2589C0.135261 23.9578 1.1267 25.2136 1.56128 25.8539C2.68899 27.5155 3.80027 28.445 5.6841 29.3201C6.81553 29.8457 7.51883 29.78 8.67602 30.1217L8.67639 34.4822C7.40544 34.7395 3.13409 34.5569 1.57086 34.5434C-0.803672 34.5229 0.0758414 35.7918 0.614177 35.9195L32.4894 35.9505C33.2005 35.9505 35.3737 36.1558 35.7948 35.7308C36.1422 35.3801 36.0372 34.7876 35.5292 34.608C34.9848 34.4157 28.8604 34.737 26.9094 34.5063V30.1802C27.8936 30.2999 28.3938 30.6876 29.6808 30.6658C30.5947 30.6505 31.4822 30.4329 32.2324 30.0822C36.371 28.1479 37.1532 22.966 34.3147 19.9504C33.3952 18.9735 33.0685 18.9612 32.6721 18.542C32.8539 15.0306 31.1267 12.5313 28.1676 11.7791C26.5582 11.3699 26.0801 11.8155 24.8229 11.7711C24.875 8.89311 24.1313 6.3869 22.8625 4.43199C22.0231 3.13869 19.3314 0.190391 18.1244 0.0473877C17.2352 -0.0579553 14.7092 2.34715 14.1658 3.0403C12.3021 5.41726 11.2045 7.96244 11.2004 11.4813C10.1672 11.6471 9.33131 11.1126 6.97327 11.7169C5.78252 12.022 4.63125 12.6437 3.83943 13.2234C2.83029 13.9623 2.20317 14.5933 1.52583 15.6873C1.12817 16.3297 -0.375433 18.6089 1.73613 18.2531L1.73619 18.2529Z" fill="#C4C4C4"/>
</svg>
