<svg width="41" height="40" viewBox="0 0 41 40" fill="none" xmlns="http://www.w3.org/2000/svg">
<path fill-rule="evenodd" clip-rule="evenodd" d="M40.7499 19.9993C40.7499 31.0445 31.7961 39.9986 20.7506 39.9986C9.70502 39.9986 0.751343 31.0445 0.751343 19.9993C0.751343 8.9538 9.70502 0 20.7506 0C31.7961 0 40.7499 8.9538 40.7499 19.9993ZM16.7092 31.5174C26.4778 31.5174 31.8198 23.425 31.8198 16.4077C31.8198 16.1778 31.8139 15.9488 31.805 15.7213C32.842 14.9717 33.7427 14.0362 34.4538 12.9717C33.5027 13.3942 32.4776 13.6792 31.405 13.8075C32.5012 13.1504 33.3427 12.1099 33.7398 10.8699C32.7116 11.4784 31.5769 11.9208 30.368 12.1589C29.3962 11.1267 28.0184 10.4811 26.4897 10.4811C23.5565 10.4811 21.1803 12.8593 21.1803 15.7911C21.1803 16.208 21.2247 16.6134 21.3166 17.002C16.902 16.7801 12.991 14.6671 10.3719 11.4538C9.91558 12.238 9.65186 13.1503 9.65186 14.1227C9.65186 15.9654 10.5882 17.5916 12.0163 18.5432C11.1452 18.5163 10.3244 18.2768 9.61038 17.8786C9.60746 17.9008 9.60746 17.923 9.60746 17.9465C9.60746 20.5186 11.4386 22.6657 13.8681 23.1529C13.4236 23.2741 12.9526 23.3396 12.4695 23.3396C12.1259 23.3396 11.794 23.3057 11.4711 23.2439C12.1466 25.3537 14.108 26.8891 16.4309 26.9323C14.6147 28.3566 12.3244 29.2055 9.83554 29.2055C9.40893 29.2055 8.98524 29.1812 8.57043 29.132C10.92 30.6379 13.711 31.5174 16.7095 31.5174H16.7092Z" fill="white"/>
</svg>
