<svg width="41" height="40" viewBox="0 0 41 40" fill="none" xmlns="http://www.w3.org/2000/svg">
<path d="M40.2525 19.9992C40.2525 31.0445 31.2984 39.9983 20.2533 39.9983C9.20801 39.9983 0.25415 31.0442 0.25415 19.9992C0.25415 8.95386 9.20827 0 20.2533 0C31.2986 0 40.2525 8.95411 40.2525 19.9992ZM17.5865 23.9989V15.9991L24.5143 19.9989L17.5865 23.9987V23.9989ZM33.0287 13.5808C32.722 12.4337 31.8188 11.53 30.6712 11.2233C28.5917 10.6661 20.2531 10.6661 20.2531 10.6661C20.2531 10.6661 11.9144 10.6661 9.83468 11.2233C8.68732 11.53 7.78384 12.4337 7.4774 13.5808C6.9202 15.6603 6.9202 19.9989 6.9202 19.9989C6.9202 19.9989 6.9202 24.3378 7.4774 26.417C7.78384 27.5646 8.68732 28.4678 9.83468 28.7745C11.9144 29.3317 20.2531 29.3317 20.2531 29.3317C20.2531 29.3317 28.5917 29.3317 30.6712 28.7745C31.8188 28.4678 32.722 27.5646 33.0287 26.417C33.5859 24.3376 33.5859 19.9989 33.5859 19.9989C33.5859 19.9989 33.5859 15.66 33.0287 13.5808Z" fill="white"/>
</svg>
